# xmcd
#
# Track frame offsets: 
#        150
#        17376
#        31178
#        46512
#        57674
#        73605
#        82300
#        95539
#        110143
#        121665
#
# Disc length: 1822 seconds
#
# Revision: 0
# Processed by: cddbd v1.5.2PL0 Copyright (c) Steve Scherf et al.
# Submitted via: ExactAudioCopy v1.2
#
DISCID=7d071c0a
DTITLE=Jontavious Willis - Spectacular Class
DYEAR=2019
DGENRE=Blues
TTITLE0=Low Down Ways
TTITLE1=The Blues is Dead?
TTITLE2=Resting on My Mind
TTITLE3=Daddy's Dough
TTITLE4=Friend Zone Blues
TTITLE5=Jon's Boogie
TTITLE6=Take Me to the Country
TTITLE7=Liquor
TTITLE8=Long Winded Woman
TTITLE9=The World is in a Tangle
EXTD=
EXTT0=
EXTT1=
EXTT2=
EXTT3=
EXTT4=
EXTT5=
EXTT6=
EXTT7=
EXTT8=
EXTT9=
PLAYORDER=
